<svg viewBox="0 0 1200 800" xmlns="http://www.w3.org/2000/svg">
    <rect width="1200" height="800" fill="#FFF7EC"/>
    <g transform="translate(600 400) scale(3.2) translate(-64 -74)">
      <path d="M64 40 Q63 28 64 20" stroke="#6FA132" stroke-width="4.5" fill="none" stroke-linecap="round"/>
      <path d="M64 30 C55 24 45 27 44 37 C55 40 62 36 64 30 Z" fill="#8FBE4A"/>
      <path d="M64 26 C71 18 81 18 84 26 C75 32 67 31 64 26 Z" fill="#A6CE63"/>
      <path d="M42 50 L35 34 Q47 38 51 51 Z" fill="#E97B18"/>
      <path d="M86 50 L93 34 Q81 38 77 51 Z" fill="#E97B18"/>
      <circle cx="64" cy="78" r="37" fill="#F79433"/>
      <circle cx="51" cy="72" r="4.4" fill="#3A2A1A"/>
      <circle cx="77" cy="72" r="4.4" fill="#3A2A1A"/>
      <path d="M64 96 C56 89 47 86 47 79 C47 74.5 51 72 55 74 C58.5 75.6 63 79 64 79 C65 79 69.5 75.6 73 74 C77 72 81 74.5 81 79 C81 86 72 89 64 96 Z" fill="#E4720F"/>
    </g>
    <text x="600" y="700" text-anchor="middle" font-family="sans-serif" font-size="46" fill="#B85C0A">담뿍하루 · 브랜드 가이드</text>
  </svg>