<svg xmlns="http://www.w3.org/2000/svg" width="0" height="0" style="position:absolute" aria-hidden="true">
  <defs>
    <!-- ============ 담이 (orange · 토끼탈) ============ -->
    <symbol id="mascot-dami" viewBox="0 0 200 230">
      <!-- body -->
      <path d="M60 210 Q60 158 100 158 Q140 158 140 210 Z" fill="#F79433"/>
      <ellipse cx="100" cy="208" rx="42" ry="10" fill="#E97B18"/>
      <!-- arms -->
      <circle cx="58" cy="180" r="14" fill="#F79433"/>
      <circle cx="142" cy="180" r="14" fill="#F79433"/>
      <!-- hood back -->
      <circle cx="100" cy="92" r="74" fill="#F79433"/>
      <!-- rabbit ears -->
      <ellipse cx="79" cy="30" rx="13" ry="32" fill="#F79433" transform="rotate(-12 79 30)"/>
      <ellipse cx="121" cy="30" rx="13" ry="32" fill="#F79433" transform="rotate(12 121 30)"/>
      <ellipse cx="79" cy="32" rx="6" ry="22" fill="#FBC7A0" transform="rotate(-12 79 32)"/>
      <ellipse cx="121" cy="32" rx="6" ry="22" fill="#FBC7A0" transform="rotate(12 121 32)"/>
      <!-- face opening (skin) -->
      <circle cx="100" cy="100" r="54" fill="#FFE3C4"/>
      <!-- cheeks -->
      <circle cx="66" cy="112" r="12" fill="#FBB27E" opacity=".7"/>
      <circle cx="134" cy="112" r="12" fill="#FBB27E" opacity=".7"/>
      <!-- eyes -->
      <circle cx="82" cy="96" r="6.5" fill="#3A2A1A"/>
      <circle cx="118" cy="96" r="6.5" fill="#3A2A1A"/>
      <circle cx="84" cy="93.5" r="2" fill="#fff"/>
      <circle cx="120" cy="93.5" r="2" fill="#fff"/>
      <!-- human smile (뿍이와 동일) -->
      <path d="M86 116 Q100 128 114 116" stroke="#C9701F" stroke-width="4" fill="none" stroke-linecap="round"/>
    </symbol>

    <!-- 담이 wink -->
    <symbol id="mascot-dami-wink" viewBox="0 0 200 230">
      <path d="M60 210 Q60 158 100 158 Q140 158 140 210 Z" fill="#F79433"/>
      <ellipse cx="100" cy="208" rx="42" ry="10" fill="#E97B18"/>
      <circle cx="58" cy="172" r="14" fill="#F79433"/>
      <circle cx="142" cy="180" r="14" fill="#F79433"/>
      <circle cx="100" cy="92" r="74" fill="#F79433"/>
      <ellipse cx="79" cy="30" rx="13" ry="32" fill="#F79433" transform="rotate(-12 79 30)"/>
      <ellipse cx="121" cy="30" rx="13" ry="32" fill="#F79433" transform="rotate(12 121 30)"/>
      <ellipse cx="79" cy="32" rx="6" ry="22" fill="#FBC7A0" transform="rotate(-12 79 32)"/>
      <ellipse cx="121" cy="32" rx="6" ry="22" fill="#FBC7A0" transform="rotate(12 121 32)"/>
      <circle cx="100" cy="100" r="54" fill="#FFE3C4"/>
      <circle cx="66" cy="112" r="12" fill="#FBB27E" opacity=".7"/>
      <circle cx="134" cy="112" r="12" fill="#FBB27E" opacity=".7"/>
      <path d="M75 96 Q82 90 89 96" stroke="#3A2A1A" stroke-width="4" fill="none" stroke-linecap="round"/>
      <circle cx="118" cy="96" r="6.5" fill="#3A2A1A"/>
      <circle cx="120" cy="93.5" r="2" fill="#fff"/>
      <path d="M86 116 Q100 128 114 116" stroke="#C9701F" stroke-width="4" fill="none" stroke-linecap="round"/>
    </symbol>

    <!-- ============ 뿍이 (green · 새싹탈) ============ -->
    <symbol id="mascot-bbuk" viewBox="0 0 200 230">
      <path d="M60 210 Q60 158 100 158 Q140 158 140 210 Z" fill="#8FBE4A"/>
      <ellipse cx="100" cy="208" rx="42" ry="10" fill="#6FA132"/>
      <circle cx="58" cy="180" r="14" fill="#8FBE4A"/>
      <circle cx="142" cy="180" r="14" fill="#8FBE4A"/>
      <circle cx="100" cy="92" r="74" fill="#8FBE4A"/>
      <!-- sprout on top -->
      <path d="M100 30 Q99 14 100 4" stroke="#6FA132" stroke-width="5" fill="none" stroke-linecap="round"/>
      <path d="M100 20 C86 12 72 16 71 30 C87 35 97 28 100 20 Z" fill="#A6CE63"/>
      <path d="M100 14 C111 2 126 2 130 14 C117 22 105 21 100 14 Z" fill="#B7D97A"/>
      <!-- face opening -->
      <circle cx="100" cy="100" r="54" fill="#FFE3C4"/>
      <circle cx="66" cy="112" r="12" fill="#F6A94F" opacity=".55"/>
      <circle cx="134" cy="112" r="12" fill="#F6A94F" opacity=".55"/>
      <circle cx="82" cy="96" r="6.5" fill="#3A2A1A"/>
      <circle cx="118" cy="96" r="6.5" fill="#3A2A1A"/>
      <circle cx="84" cy="93.5" r="2" fill="#fff"/>
      <circle cx="120" cy="93.5" r="2" fill="#fff"/>
      <!-- smile -->
      <path d="M86 116 Q100 128 114 116" stroke="#C9701F" stroke-width="4" fill="none" stroke-linecap="round"/>
    </symbol>

    <!-- 뿍이 happy (open smile) -->
    <symbol id="mascot-bbuk-happy" viewBox="0 0 200 230">
      <path d="M60 210 Q60 158 100 158 Q140 158 140 210 Z" fill="#8FBE4A"/>
      <ellipse cx="100" cy="208" rx="42" ry="10" fill="#6FA132"/>
      <circle cx="56" cy="168" r="14" fill="#8FBE4A"/>
      <circle cx="144" cy="168" r="14" fill="#8FBE4A"/>
      <circle cx="100" cy="92" r="74" fill="#8FBE4A"/>
      <path d="M100 30 Q99 14 100 4" stroke="#6FA132" stroke-width="5" fill="none" stroke-linecap="round"/>
      <path d="M100 20 C86 12 72 16 71 30 C87 35 97 28 100 20 Z" fill="#A6CE63"/>
      <path d="M100 14 C111 2 126 2 130 14 C117 22 105 21 100 14 Z" fill="#B7D97A"/>
      <circle cx="100" cy="100" r="54" fill="#FFE3C4"/>
      <circle cx="66" cy="110" r="12" fill="#F6A94F" opacity=".55"/>
      <circle cx="134" cy="110" r="12" fill="#F6A94F" opacity=".55"/>
      <path d="M76 92 Q82 86 88 92" stroke="#3A2A1A" stroke-width="4" fill="none" stroke-linecap="round"/>
      <path d="M112 92 Q118 86 124 92" stroke="#3A2A1A" stroke-width="4" fill="none" stroke-linecap="round"/>
      <path d="M84 114 Q100 134 116 114 Q100 122 84 114 Z" fill="#C9701F"/>
    </symbol>
  </defs>
</svg>